HIERARCHY
ROOT Hips
{
	OFFSET 0.000000 121.760803 0.000000
	CHANNELS 6 Xposition Yposition Zposition Xrotation Yrotation Zrotation 
	JOINT Spine
	{
		OFFSET 0.072000 7.257294 -0.789700
		CHANNELS 3 Xrotation Yrotation Zrotation
		JOINT Spine1
		{
			OFFSET 0.000000 12.508769 -0.658067
			CHANNELS 3 Xrotation Yrotation Zrotation
			JOINT Spine1_split
			{
				OFFSET 0.000000 12.508769 -0.658067
				CHANNELS 3 Xrotation Yrotation Zrotation
				JOINT Spine2
				{
					OFFSET 0.000000 12.508769 -0.658067
					CHANNELS 3 Xrotation Yrotation Zrotation
					JOINT Neck
					{
						OFFSET 0.000000 14.033295 7.520400
						CHANNELS 3 Xrotation Yrotation Zrotation
						JOINT Head
						{
							OFFSET 0.000000 8.198502 5.703100
							CHANNELS 3 Xrotation Yrotation Zrotation
							JOINT HeadTop_End
							{
								OFFSET 0.000000 17.760803 13.332701
								CHANNELS 3 Xrotation Yrotation Zrotation
								End Site
								{
									OFFSET 0.000000 0.000000 0.000000
								}
							}
						}
					}
					JOINT LeftShoulder
					{
						OFFSET 6.292450 5.785301 -0.669000
						CHANNELS 3 Xrotation Yrotation Zrotation
						JOINT LeftShoulder_split
						{
							OFFSET 6.292450 5.785301 -0.669000
							CHANNELS 3 Xrotation Yrotation Zrotation
							JOINT LeftArm
							{
								OFFSET 13.907140 -6.093903 1.965100
								CHANNELS 3 Xrotation Yrotation Zrotation
								JOINT LeftForeArm
								{
									OFFSET 34.140198 0.000000 0.000000
									CHANNELS 3 Xrotation Yrotation Zrotation
									JOINT LeftHand
									{
										OFFSET 40.960209 0.000000 0.000000
										CHANNELS 3 Xrotation Yrotation Zrotation
										JOINT LeftHandThumb1
										{
											OFFSET 10.006996 -7.170425 9.573125
											CHANNELS 3 Xrotation Yrotation Zrotation
											JOINT LeftHandThumb2
											{
												OFFSET 1.835007 -1.059448 1.059443
												CHANNELS 3 Xrotation Yrotation Zrotation
												JOINT LeftHandThumb3
												{
													OFFSET 2.112267 -1.219513 1.219518
													CHANNELS 3 Xrotation Yrotation Zrotation
													JOINT LeftHandThumb4
													{
														OFFSET 4.843811 -2.796570 2.796576
														CHANNELS 3 Xrotation Yrotation Zrotation
														End Site
														{
															OFFSET 0.000000 0.000000 0.000000
														}
													}
												}
											}
										}
										JOINT LeftHandIndex1
										{
											OFFSET 18.389847 -0.922348 4.596882
											CHANNELS 3 Xrotation Yrotation Zrotation
											JOINT LeftHandIndex2
											{
												OFFSET 4.711273 0.000000 0.000000
												CHANNELS 3 Xrotation Yrotation Zrotation
												JOINT LeftHandIndex3
												{
													OFFSET 2.886131 0.000000 0.000000
													CHANNELS 3 Xrotation Yrotation Zrotation
													JOINT LeftHandIndex4
													{
														OFFSET 6.145912 0.000000 0.000000
														CHANNELS 3 Xrotation Yrotation Zrotation
														End Site
														{
															OFFSET 0.000000 0.000000 0.000000
														}
													}
												}
											}
										}
										JOINT LeftHandMiddle1
										{
											OFFSET 18.013008 0.000000 0.000000
											CHANNELS 3 Xrotation Yrotation Zrotation
											JOINT LeftHandMiddle2
											{
												OFFSET 4.946693 0.000000 0.000000
												CHANNELS 3 Xrotation Yrotation Zrotation
												JOINT LeftHandMiddle3
												{
													OFFSET 3.342232 0.000000 0.000000
													CHANNELS 3 Xrotation Yrotation Zrotation
													JOINT LeftHandMiddle4
													{
														OFFSET 4.461754 0.000000 0.000000
														CHANNELS 3 Xrotation Yrotation Zrotation
														End Site
														{
															OFFSET 0.000000 0.000000 0.000000
														}
													}
												}
											}
										}
										JOINT LeftHandRing1
										{
											OFFSET 15.849892 -0.102921 -4.126150
											CHANNELS 3 Xrotation Yrotation Zrotation
											JOINT LeftHandRing2
											{
												OFFSET 3.527054 0.000000 0.000000
												CHANNELS 3 Xrotation Yrotation Zrotation
												JOINT LeftHandRing3
												{
													OFFSET 2.961098 0.000000 0.000000
													CHANNELS 3 Xrotation Yrotation Zrotation
													JOINT LeftHandRing4
													{
														OFFSET 4.927200 0.000000 0.000000
														CHANNELS 3 Xrotation Yrotation Zrotation
														End Site
														{
															OFFSET 0.000000 0.000000 0.000000
														}
													}
												}
											}
										}
										JOINT LeftHandPinky1
										{
											OFFSET 12.791824 -0.832031 -6.799156
											CHANNELS 3 Xrotation Yrotation Zrotation
											JOINT LeftHandPinky2
											{
												OFFSET 3.327133 0.000000 0.000000
												CHANNELS 3 Xrotation Yrotation Zrotation
												JOINT LeftHandPinky3
												{
													OFFSET 3.014900 0.000000 0.000000
													CHANNELS 3 Xrotation Yrotation Zrotation
													JOINT LeftHandPinky4
													{
														OFFSET 5.847786 0.000000 0.000000
														CHANNELS 3 Xrotation Yrotation Zrotation
														End Site
														{
															OFFSET 0.000000 0.000000 0.000000
														}
													}
												}
											}
										}
									}
								}
							}
						}
					}
					JOINT RightShoulder
					{
						OFFSET -6.292450 5.785301 -0.669000
						CHANNELS 3 Xrotation Yrotation Zrotation
						JOINT RightShoulder_split
						{
							OFFSET -6.292450 5.785301 -0.669000
							CHANNELS 3 Xrotation Yrotation Zrotation
							JOINT RightArm
							{
								OFFSET -13.907140 -6.093903 1.965100
								CHANNELS 3 Xrotation Yrotation Zrotation
								JOINT RightForeArm
								{
									OFFSET -34.140198 0.000000 0.000000
									CHANNELS 3 Xrotation Yrotation Zrotation
									JOINT RightHand
									{
										OFFSET -40.960209 0.000000 0.000000
										CHANNELS 3 Xrotation Yrotation Zrotation
										JOINT RightHandThumb1
										{
											OFFSET -10.007050 -7.170456 9.573117
											CHANNELS 3 Xrotation Yrotation Zrotation
											JOINT RightHandThumb2
											{
												OFFSET -1.835007 -1.059448 1.059443
												CHANNELS 3 Xrotation Yrotation Zrotation
												JOINT RightHandThumb3
												{
													OFFSET -2.112267 -1.219513 1.219518
													CHANNELS 3 Xrotation Yrotation Zrotation
													JOINT RightHandThumb4
													{
														OFFSET -4.843834 -2.796585 2.796590
														CHANNELS 3 Xrotation Yrotation Zrotation
														End Site
														{
															OFFSET 0.000000 0.000000 0.000000
														}
													}
												}
											}
										}
										JOINT RightHandIndex1
										{
											OFFSET -18.389870 -0.922424 4.596786
											CHANNELS 3 Xrotation Yrotation Zrotation
											JOINT RightHandIndex2
											{
												OFFSET -4.711273 0.000000 0.000000
												CHANNELS 3 Xrotation Yrotation Zrotation
												JOINT RightHandIndex3
												{
													OFFSET -2.886131 0.000000 0.000000
													CHANNELS 3 Xrotation Yrotation Zrotation
													JOINT RightHandIndex4
													{
														OFFSET -6.145920 0.000000 0.000000
														CHANNELS 3 Xrotation Yrotation Zrotation
														End Site
														{
															OFFSET 0.000000 0.000000 0.000000
														}
													}
												}
											}
										}
										JOINT RightHandMiddle1
										{
											OFFSET -18.013008 0.000000 0.000000
											CHANNELS 3 Xrotation Yrotation Zrotation
											JOINT RightHandMiddle2
											{
												OFFSET -4.946693 0.000000 0.000000
												CHANNELS 3 Xrotation Yrotation Zrotation
												JOINT RightHandMiddle3
												{
													OFFSET -3.342232 0.000000 0.000000
													CHANNELS 3 Xrotation Yrotation Zrotation
													JOINT RightHandMiddle4
													{
														OFFSET -4.461754 0.000000 0.000000
														CHANNELS 3 Xrotation Yrotation Zrotation
														End Site
														{
															OFFSET 0.000000 0.000000 0.000000
														}
													}
												}
											}
										}
										JOINT RightHandRing1
										{
											OFFSET -15.849876 -0.102936 -4.126237
											CHANNELS 3 Xrotation Yrotation Zrotation
											JOINT RightHandRing2
											{
												OFFSET -3.527054 0.000000 0.000000
												CHANNELS 3 Xrotation Yrotation Zrotation
												JOINT RightHandRing3
												{
													OFFSET -2.961098 0.000000 0.000000
													CHANNELS 3 Xrotation Yrotation Zrotation
													JOINT RightHandRing4
													{
														OFFSET -4.927200 0.000000 0.000000
														CHANNELS 3 Xrotation Yrotation Zrotation
														End Site
														{
															OFFSET 0.000000 0.000000 0.000000
														}
													}
												}
											}
										}
										JOINT RightHandPinky1
										{
											OFFSET -12.791786 -0.832077 -6.799222
											CHANNELS 3 Xrotation Yrotation Zrotation
											JOINT RightHandPinky2
											{
												OFFSET -3.327133 0.000000 0.000000
												CHANNELS 3 Xrotation Yrotation Zrotation
												JOINT RightHandPinky3
												{
													OFFSET -3.014900 0.000000 0.000000
													CHANNELS 3 Xrotation Yrotation Zrotation
													JOINT RightHandPinky4
													{
														OFFSET -5.847786 0.000000 0.000000
														CHANNELS 3 Xrotation Yrotation Zrotation
														End Site
														{
															OFFSET 0.000000 0.000000 0.000000
														}
													}
												}
											}
										}
									}
								}
							}
						}
					}
				}
			}
		}
	}
	JOINT LeftUpLeg
	{
		OFFSET 13.026900 -6.336304 -1.092800
		CHANNELS 3 Xrotation Yrotation Zrotation
		JOINT LeftLeg
		{
			OFFSET 0.524474 -46.096886 9.782700
			CHANNELS 3 Xrotation Yrotation Zrotation
			JOINT LeftFoot
			{
				OFFSET -0.524474 -53.427422 -12.948200
				CHANNELS 3 Xrotation Yrotation Zrotation
				JOINT LeftToeBase
				{
					OFFSET 0.192200 -14.009700 16.364100
					CHANNELS 3 Xrotation Yrotation Zrotation
					JOINT LeftToe_End
					{
						OFFSET -1.784700 -0.561700 9.474800
						CHANNELS 3 Xrotation Yrotation Zrotation
						End Site
						{
							OFFSET 0.000000 0.000000 0.000000
						}
					}
				}
			}
		}
	}
	JOINT RightUpLeg
	{
		OFFSET -12.883000 -6.336304 -1.092800
		CHANNELS 3 Xrotation Yrotation Zrotation
		JOINT RightLeg
		{
			OFFSET -0.524587 -46.096825 9.782800
			CHANNELS 3 Xrotation Yrotation Zrotation
			JOINT RightFoot
			{
				OFFSET 0.524587 -53.427383 -12.948300
				CHANNELS 3 Xrotation Yrotation Zrotation
				JOINT RightToeBase
				{
					OFFSET -0.192200 -14.009700 16.364100
					CHANNELS 3 Xrotation Yrotation Zrotation
					JOINT RightToe_End
					{
						OFFSET 1.784700 -0.561700 9.474800
						CHANNELS 3 Xrotation Yrotation Zrotation
						End Site
						{
							OFFSET 0.000000 0.000000 0.000000
						}
					}
				}
			}
		}
	}
}
MOTION
Frames: 4
Frame Time: 0.016667
-0.277013 115.591698 14.971708 4.069659 36.447727 -2.665044 7.113662 0.538544 -2.527237 1.179945 0.647741 1.438046 0.000000 0.000000 0.000000 1.171143 0.823278 1.416790 -1.447711 25.849746 -8.284149 -8.495195 20.302447 -2.010670 0.000000 0.000001 0.000000 -0.063457 -2.703526 -0.486098 0.000000 0.000000 0.000000 -58.743814 21.372239 -22.798871 10.391481 -75.898353 11.787495 -50.033912 13.093964 4.982031 17.538852 -5.734675 -12.929158 10.855120 26.140266 8.645405 20.951657 51.158718 0.208831 -0.000001 -0.000003 0.000003 13.990899 1.412550 -54.992011 0.369642 1.160692 -65.362547 1.981652 2.149119 -57.592592 0.000001 0.000000 0.000000 7.444396 1.211133 -63.725542 1.805181 1.477036 -64.469452 0.129484 -0.913962 -43.167830 -0.000001 0.000000 -0.000000 8.572771 2.194684 -75.055726 -0.208479 1.006769 -57.746408 0.442981 1.742062 -53.571820 -0.000000 -0.000001 -0.000001 10.012753 13.637238 -84.737642 0.876231 0.062051 -64.553907 1.144412 1.253375 -55.141760 -0.000000 0.000000 0.000001 4.836702 8.975272 6.727817 0.000000 0.000000 0.000000 10.740048 17.144876 61.498409 10.869381 22.267132 -5.100413 -0.366000 5.346430 5.429067 15.788510 -2.734474 -17.205865 -1.822805 -31.650834 7.412942 -6.030938 -5.243014 2.168339 -0.000000 0.000001 -0.000000 2.375259 -3.654549 13.539318 -2.144072 -2.475457 24.342726 -1.902152 -4.809699 19.843105 0.000000 0.000000 0.000001 -1.975826 -5.709692 18.810590 0.284021 -5.102733 32.657576 -0.662521 -1.222462 21.795089 -0.000001 0.000000 -0.000001 -3.263395 -8.564386 16.917265 4.034733 -4.065636 38.932321 2.105435 -3.163310 21.262925 0.000000 0.000000 -0.000002 -6.473128 -11.350193 28.409178 10.721025 -2.560807 40.492404 6.414932 -3.081974 20.980287 -0.000000 -0.000000 0.000000 -23.486186 6.852158 2.963535 21.396213 -34.761698 -4.861917 -4.944614 -6.957510 5.014324 -0.121070 -0.038778 -0.589224 0.000000 -0.000000 -0.000000 -12.998739 14.572364 0.404995 21.345854 12.352498 1.039412 -11.475057 2.940494 -1.376055 -0.761725 -0.032686 0.008808 0.000000 -0.000001 -0.000000 
-1.176641 115.803215 15.392931 4.327678 39.271108 -3.040497 7.215243 0.396563 -2.796127 1.139005 0.472318 1.508125 0.000000 0.000000 0.000000 1.129823 0.658002 1.495974 -1.497329 24.861771 -8.282023 -9.017807 19.238497 -1.161760 0.000000 0.000000 -0.000000 -0.098274 -4.304837 -0.130150 0.000000 0.000000 0.000000 -58.723446 20.289147 -23.609855 9.881840 -75.007047 11.444891 -50.003374 13.081693 4.645817 17.538835 -5.734757 -12.929154 10.856110 26.143010 8.645546 20.949729 51.155344 0.209604 0.000005 -0.000003 0.000003 13.990645 1.416723 -54.990143 0.369586 1.160638 -65.359378 1.981590 2.149147 -57.590967 0.000000 -0.000002 0.000000 7.443696 1.211637 -63.724558 1.805148 1.477050 -64.467943 0.129471 -0.913987 -43.166290 0.000000 0.000002 -0.000000 8.572815 2.194719 -75.057577 -0.208461 1.006783 -57.748157 0.442981 1.742081 -53.573139 0.000000 0.000001 -0.000002 10.014148 13.637232 -84.738619 0.876281 0.062061 -64.556093 1.144496 1.253389 -55.143689 -0.000000 0.000001 -0.000001 4.845230 8.887823 6.669460 0.000000 0.000000 0.000000 9.629278 15.060113 62.090272 10.941251 22.517800 -5.122139 -0.392326 5.635247 5.539855 15.788510 -2.734474 -17.205868 -1.914324 -31.520131 7.399882 -6.150513 -4.993759 2.220936 0.000000 -0.000003 -0.000000 2.374038 -3.654712 14.015433 -2.143508 -2.475492 24.691636 -1.902129 -4.809967 20.192046 0.000000 0.000000 0.000000 -1.975719 -5.709869 19.281535 0.284143 -5.104042 33.006500 -0.661537 -1.222729 22.144016 -0.000000 0.000000 -0.000002 -3.264511 -8.564579 17.388002 4.034655 -4.065530 39.281186 2.106996 -3.163369 21.611909 -0.000001 -0.000000 0.000001 -6.473062 -11.350431 28.880065 10.721143 -2.560945 40.841287 6.415001 -3.082127 21.329178 0.000000 -0.000000 0.000000 -23.860424 7.246274 3.244447 20.701475 -38.061072 -5.058850 -5.205023 -5.075847 4.713500 -0.111910 -0.038828 -0.619490 0.000000 -0.000000 -0.000000 -12.575042 13.732654 0.953766 20.838818 11.292809 0.954208 -11.304407 1.838095 -1.779042 -0.760460 -0.032676 0.011433 0.000000 0.000001 0.000000 
-2.050656 115.896767 15.681190 4.728873 41.564696 -3.640246 7.289757 0.348017 -2.942081 1.074961 0.409435 1.547331 0.000000 0.000000 0.000000 1.065680 0.600861 1.538320 -1.669405 23.934923 -8.054799 -9.247519 18.341334 -0.647390 -0.000000 0.000001 0.000000 -0.137374 -5.857317 0.179679 0.000000 0.000000 0.000000 -58.765103 19.401632 -24.164856 9.711218 -74.412964 11.445041 -50.015976 13.301353 4.477772 17.538799 -5.734846 -12.929142 10.857146 26.145788 8.645662 20.947770 51.151983 0.210400 -0.000001 -0.000005 0.000000 13.990323 1.420891 -54.988275 0.369542 1.160615 -65.356250 1.981548 2.149180 -57.589348 -0.000000 -0.000001 0.000001 7.442978 1.212101 -63.723616 1.805132 1.477059 -64.466419 0.129461 -0.914003 -43.164757 0.000000 0.000001 -0.000000 8.572827 2.194762 -75.059449 -0.208430 1.006848 -57.749891 0.443026 1.742083 -53.574474 0.000000 0.000001 0.000000 10.015509 13.637225 -84.739582 0.876311 0.062085 -64.557732 1.144532 1.253388 -55.145605 -0.000000 0.000000 -0.000001 4.849104 8.873598 6.578581 0.000000 0.000000 0.000000 8.499948 12.815134 62.567333 10.948440 22.781413 -5.092096 -0.404703 5.981647 5.562206 15.788508 -2.734474 -17.205868 -1.995414 -31.404144 7.388583 -6.258809 -4.769361 2.268984 -0.000002 -0.000004 -0.000002 2.372860 -3.654825 14.485523 -2.142885 -2.475695 25.045071 -1.902099 -4.810204 20.545414 -0.000001 0.000001 -0.000004 -1.975677 -5.710046 19.743913 0.284325 -5.105388 33.359805 -0.660447 -1.222920 22.497434 0.000001 0.000000 -0.000001 -3.265565 -8.564769 17.850237 4.034660 -4.066037 39.634532 2.108567 -3.163467 21.965368 -0.000000 0.000000 0.000001 -6.472932 -11.350344 29.342547 10.721293 -2.561069 41.194705 6.415029 -3.082245 21.682582 0.000000 -0.000000 0.000000 -24.471615 7.955175 4.281061 20.300608 -36.872933 -4.732110 -5.344039 -5.291342 3.495317 -0.094634 -0.039027 -0.589711 0.000000 0.000000 0.000000 -12.594685 13.060019 1.609306 20.542047 10.012642 0.850761 -11.116913 1.295353 -1.971877 -0.759826 -0.032727 0.012693 -0.000000 -0.000000 0.000000 
-2.900258 115.939232 15.884800 5.164843 43.544471 -4.297134 7.374080 0.344261 -3.059243 1.021573 0.402675 1.586730 0.000000 0.000000 0.000000 1.011851 0.599493 1.577682 -1.918164 23.066295 -7.797576 -9.375054 17.512229 -0.237607 -0.000000 -0.000000 0.000000 -0.156235 -7.215452 0.446555 0.000000 0.000000 0.000000 -58.915040 18.233878 -24.765118 9.440005 -73.554403 11.301882 -49.997476 13.434660 4.113511 17.538754 -5.734925 -12.929137 10.858157 26.148568 8.645800 20.945851 51.148650 0.211185 0.000003 -0.000005 0.000003 13.990040 1.425073 -54.986407 0.369500 1.160560 -65.353053 1.981479 2.149213 -57.587722 0.000000 -0.000001 0.000001 7.442259 1.212586 -63.722626 1.805085 1.477120 -64.464944 0.129444 -0.914038 -43.163223 -0.000000 0.000002 -0.000000 8.572851 2.194785 -75.061313 -0.208426 1.006890 -57.751620 0.443048 1.742096 -53.575785 -0.000000 0.000001 -0.000000 10.016860 13.637200 -84.740545 0.876326 0.062100 -64.559003 1.144579 1.253401 -55.147514 0.000000 -0.000000 -0.000004 4.849872 8.905629 6.467971 0.000000 0.000000 0.000000 7.348093 10.428497 62.949605 10.867223 23.018798 -5.002924 -0.408413 6.356067 5.557310 15.788512 -2.734474 -17.205868 -2.064799 -31.304786 7.379073 -6.354876 -4.573791 2.311984 -0.000000 0.000000 0.000001 2.372193 -3.658612 14.937724 -2.142233 -2.475748 25.392326 -1.902040 -4.810391 20.892625 0.000001 -0.000001 0.000003 -1.976002 -5.710191 20.185555 0.284482 -5.106715 33.706990 -0.659250 -1.222994 22.844674 0.000000 -0.000000 0.000001 -3.266495 -8.564905 18.291814 4.034684 -4.065996 39.981752 2.109981 -3.163517 22.312672 0.000000 0.000000 -0.000001 -6.472837 -11.350822 29.784167 10.721321 -2.561112 41.541941 6.415132 -3.082444 22.029785 -0.000000 -0.000000 -0.000000 -25.104516 8.199444 5.568668 19.785477 -34.709970 -4.592384 -5.439441 -5.095480 2.158804 -0.073166 -0.039225 -0.550340 0.000000 -0.000000 -0.000000 -12.792209 12.391821 2.262230 20.350453 8.998656 0.769022 -10.910129 0.804149 -2.167368 -0.759188 -0.032715 0.013645 -0.000000 -0.000002 0.000000 
